# xmcd
#
# Track frame offsets:
#	150
#	14120
#	27975
#	49335
#	61775
#	80982
#	96576
#	113068
#	130127
#	146900
#	160809
#
# Disc length: 2377 seconds
# Revision: 1
# Processed by: cddbd v1.5.2PL0 Copyright (c) Steve Scherf et al.
# Submitted via: dBpowerAMP V12.0
#
DISCID=a109470b
DTITLE=Lee Watson - Northern Track
DYEAR=2009
DGENRE=Bluegrass
TTITLE0=Northern Track
TTITLE1=Blue Love
TTITLE2=To the End of the World
TTITLE3=The First One to Say Goodbye
TTITLE4=She's on Fire
TTITLE5=That Rooster He's the Devil
TTITLE6=The Lonesome Life
TTITLE7=Troubled Road to Travel
TTITLE8=Can We Fall in Love Again
TTITLE9=Take the Pain
TTITLE10=You're Not Alone
EXTD=
EXTT0=
EXTT1=
EXTT2=
EXTT3=
EXTT4=
EXTT5=
EXTT6=
EXTT7=
EXTT8=
EXTT9=
EXTT10=
PLAYORDER=
